# xmcd
#
# Track frame offsets: 
#        150
#        20621
#        34713
#        44946
#        64491
#        78553
#        105237
#        118307
#        133094
#        150453
#        164011
#
# Disc length: 2408 seconds
#
# Revision: 0
# Processed by: cddbd v1.5.2PL0 Copyright (c) Steve Scherf et al.
# Submitted via: ExactAudioCopy v0.99pb4
#
DISCID=9c09660b
DTITLE=Lance Mills - Wore Out Shoes
DYEAR=2009
DGENRE=Folk
TTITLE0=This Won't Be the First Time
TTITLE1=If I Fall
TTITLE2=Good Mornin' Blues
TTITLE3=West Virginia Skies
TTITLE4=Prayer of the Moonlight
TTITLE5=Empty Promises
TTITLE6=Sweet Red Wine
TTITLE7=If the Devil Wrote a Honky Tonk Song
TTITLE8=Put That Bottle Down
TTITLE9=Nelly Bly
TTITLE10=You Never Know
EXTD=
EXTT0=
EXTT1=
EXTT2=
EXTT3=
EXTT4=
EXTT5=
EXTT6=
EXTT7=
EXTT8=
EXTT9=
EXTT10=
PLAYORDER=
